<svg xmlns="http://www.w3.org/2000/svg" version="1.1" x="0" y="0" width="37" height="37" viewBox="0 0 37 37" style="enable-background:new 0 0 37 37;" space="preserve"><path class="_2y-e" d="M22.9,21.3H22L21.7,21c1.1-1.2,1.7-2.8,1.7-4.5&#10;                c0-3.9-3.1-7.1-7-7.1s-7,3.1-7,7.1c0,3.9,3.1,7,7,7c1.7,0,&#10;                3.3-0.7,4.5-1.7l0.3,0.3v0.9l4.7,4.7l1.6-1.6L22.9,21.3z M16.4,&#10;                21.3c-2.7,0-4.8-2.2-4.8-4.8s2.2-4.8,4.8-4.8s4.8,2.2,4.8,&#10;                4.8S19.1,21.3,16.4,21.3z"/></svg>